<svg xmlns="http://www.w3.org/2000/svg" style="display: none;">
  <symbol id="menu" viewBox="0 0 24 24">
    <path fill="currentColor" d="M3,6H21V8H3V6M3,11H21V13H3V11M3,16H21V18H3V16Z" />
  </symbol>
  
  <symbol id="user" viewBox="0 0 24 24">
    <path fill="currentColor" d="M12,4A4,4 0 0,1 16,8A4,4 0 0,1 12,12A4,4 0 0,1 8,8A4,4 0 0,1 12,4M12,14C16.42,14 20,15.79 20,18V20H4V18C4,15.79 7.58,14 12,14Z" />
  </symbol>
  
  <symbol id="portfolio" viewBox="0 0 24 24">
    <path fill="currentColor" d="M21,17H7V3H21M21,1H7A2,2 0 0,0 5,3V17A2,2 0 0,0 7,19H21A2,2 0 0,0 23,17V3A2,2 0 0,0 21,1M3,5H1V21A2,2 0 0,0 3,23H19V21H3V5Z" />
  </symbol>
  
  <symbol id="contact" viewBox="0 0 24 24">
    <path fill="currentColor" d="M20,0H4V2H20V0M4,24H20V22H4V24M20,4H4A2,2 0 0,0 2,6V18A2,2 0 0,0 4,20H20A2,2 0 0,0 22,18V6A2,2 0 0,0 20,4M12,6.75A2.25,2.25 0 0,1 14.25,9A2.25,2.25 0 0,1 12,11.25A2.25,2.25 0 0,1 9.75,9A2.25,2.25 0 0,1 12,6.75M17,17H7V15.5C7,13.83 10.33,13 12,13C13.67,13 17,13.83 17,15.5V17Z" />
  </symbol>

  <symbol id="phone" viewBox="0 0 20 20">
    <path fill="#fff" d="M15,0 C16.1045695,0 17,0.8954305 17,2 L17,18 C17,19.1045695 16.1045695,20 15,20 L5,20 C3.8954305,20 3,19.1045695 3,18 L3,2 C3,0.8954305 3.8954305,0 5,0 L15,0 Z M15.6,15.388 L4.4,15.388 L4.4,18 C4.4,18.3313708 4.66862915,18.6 5,18.6 L15,18.6 C15.3313708,18.6 15.6,18.3313708 15.6,18 L15.6,15.388 Z M10,16 C10.5522847,16 11,16.4477153 11,17 C11,17.5522847 10.5522847,18 10,18 C9.44771525,18 9,17.5522847 9,17 C9,16.4477153 9.44771525,16 10,16 Z M15,1.4 L5,1.4 C4.66862915,1.4 4.4,1.66862915 4.4,2 L4.4,13.988 L15.6,13.988 L15.6,2 C15.6,1.66862915 15.3313708,1.4 15,1.4 Z" />
  </symbol>

  <symbol id="email" viewBox="0 0 24 24">
    <path fill="currentColor" d="M20,8L12,13L4,8V6L12,11L20,6M20,4H4C2.89,4 2,4.89 2,6V18A2,2 0 0,0 4,20H20A2,2 0 0,0 22,18V6C22,4.89 21.1,4 20,4Z" />
  </symbol>

  <symbol id="github" viewBox="0 0 24 24">
    <path fill="currentColor" d="M12,2A10,10 0 0,0 2,12C2,16.42 4.87,20.17 8.84,21.5C9.34,21.58 9.5,21.27 9.5,21C9.5,20.77 9.5,20.14 9.5,19.31C6.73,19.91 6.14,17.97 6.14,17.97C5.68,16.81 5.03,16.5 5.03,16.5C4.12,15.88 5.1,15.9 5.1,15.9C6.1,15.97 6.63,16.93 6.63,16.93C7.5,18.45 8.97,18 9.54,17.76C9.63,17.11 9.89,16.67 10.17,16.42C7.95,16.17 5.62,15.31 5.62,11.5C5.62,10.39 6,9.5 6.65,8.79C6.55,8.54 6.2,7.5 6.75,6.15C6.75,6.15 7.59,5.88 9.5,7.17C10.29,6.95 11.15,6.84 12,6.84C12.85,6.84 13.71,6.95 14.5,7.17C16.41,5.88 17.25,6.15 17.25,6.15C17.8,7.5 17.45,8.54 17.35,8.79C18,9.5 18.38,10.39 18.38,11.5C18.38,15.32 16.04,16.16 13.81,16.41C14.17,16.72 14.5,17.33 14.5,18.26C14.5,19.6 14.5,20.68 14.5,21C14.5,21.27 14.66,21.59 15.17,21.5C19.14,20.16 22,16.42 22,12A10,10 0 0,0 12,2Z" />
  </symbol>

  <symbol id="linkedin" viewBox="0 0 24 24">
    <path fill="currentColor" d="M19 3A2 2 0 0 1 21 5V19A2 2 0 0 1 19 21H5A2 2 0 0 1 3 19V5A2 2 0 0 1 5 3H19M18.5 18.5V13.2A3.26 3.26 0 0 0 15.24 9.94C14.39 9.94 13.4 10.46 12.92 11.24V10.13H10.13V18.5H12.92V13.57C12.92 12.8 13.54 12.17 14.31 12.17A1.4 1.4 0 0 1 15.71 13.57V18.5H18.5M6.88 8.56A1.68 1.68 0 0 0 8.56 6.88C8.56 5.95 7.81 5.19 6.88 5.19A1.69 1.69 0 0 0 5.19 6.88C5.19 7.81 5.95 8.56 6.88 8.56M8.27 18.5V10.13H5.5V18.5H8.27Z" />
  </symbol>
</svg>
